<?xml version="1.0" standalone="no"?>
<!DOCTYPE svg PUBLIC "-//W3C//DTD SVG 20010904//EN"
 "http://www.w3.org/TR/2001/REC-SVG-20010904/DTD/svg10.dtd">
<svg version="1.0" xmlns="http://www.w3.org/2000/svg"
 width="512.000000pt" height="512.000000pt" viewBox="0 0 512.000000 512.000000"
 preserveAspectRatio="xMidYMid meet">
<metadata>
Created by potrace 1.14, written by Peter Selinger 2001-2017
</metadata>
<g transform="translate(0.000000,512.000000) scale(0.100000,-0.100000)"
fill="#000000" stroke="none">
<path d="M2909 5100 c-46 -24 -86 -71 -98 -116 -11 -39 -3 -71 44 -183 41 -98
34 -166 -31 -301 -71 -146 -88 -213 -88 -340 0 -87 4 -120 27 -190 15 -47 37
-103 49 -125 31 -54 93 -85 171 -85 51 0 62 4 87 28 15 16 34 48 41 72 12 39
11 49 -10 104 -62 165 -63 170 -58 224 4 33 24 92 55 160 75 161 86 208 86
342 0 110 -2 119 -41 222 -46 120 -79 169 -128 192 -42 20 -61 20 -106 -4z"/>
<path d="M2240 5098 c-40 -11 -76 -41 -96 -80 -24 -46 -17 -104 22 -190 54
-121 52 -171 -19 -324 -30 -66 -63 -150 -72 -189 -36 -141 -15 -318 54 -454
34 -70 87 -101 171 -101 70 0 101 21 126 85 20 53 16 81 -26 170 -56 120 -52
182 25 340 99 202 111 373 40 560 -21 55 -46 112 -57 128 -35 49 -107 73 -168
55z"/>
<path d="M1532 5084 c-54 -28 -77 -70 -77 -139 0 -44 6 -69 22 -96 31 -50 54
-144 47 -193 -3 -23 -30 -93 -59 -156 -111 -243 -117 -392 -24 -615 39 -92 74
-118 171 -123 65 -4 71 -3 99 23 59 58 62 123 8 241 -25 54 -32 83 -32 134 -1
59 4 77 50 175 63 135 80 189 92 283 15 115 -7 225 -73 373 -15 34 -38 66 -57
80 -42 30 -122 36 -167 13z"/>
<path d="M320 3567 c-59 -13 -134 -60 -168 -106 -26 -35 -42 -93 -42 -151 0
-48 247 -1422 275 -1532 114 -439 432 -819 846 -1012 114 -52 221 -88 354
-118 97 -22 114 -23 670 -23 559 0 572 0 675 23 611 134 1044 548 1190 1137
31 125 14 113 150 100 170 -17 370 57 498 183 166 164 251 379 239 602 -11
198 -69 319 -209 433 -95 77 -191 109 -324 108 l-81 -1 0 73 c0 39 -6 92 -12
115 -16 57 -78 124 -144 153 l-52 24 -1905 2 c-1449 1 -1918 -1 -1960 -10z
m3730 -347 c0 -52 -223 -1355 -246 -1435 -127 -450 -498 -782 -974 -872 -83
-16 -157 -18 -575 -18 -422 0 -492 2 -578 18 -97 18 -218 56 -308 95 -115 50
-293 175 -380 269 -130 137 -249 352 -294 528 -18 74 -245 1396 -245 1430 0 3
810 5 1800 5 l1800 0 0 -20z m489 -299 c118 -61 167 -206 126 -379 -37 -157
-125 -261 -254 -302 -74 -23 -201 -28 -201 -7 0 12 105 599 115 644 13 55 141
81 214 44z"/>
<path d="M191 288 c-28 -14 -51 -36 -63 -58 -34 -65 -17 -156 37 -198 l28 -22
2076 0 c1952 0 2077 1 2097 18 40 32 57 70 57 128 0 60 -16 91 -67 128 l-27
21 -2047 3 -2047 2 -44 -22z"/>
</g>
</svg>
